<?xml version="1.0" standalone="no"?>
<!DOCTYPE svg PUBLIC "-//W3C//DTD SVG 20010904//EN"
 "http://www.w3.org/TR/2001/REC-SVG-20010904/DTD/svg10.dtd">
<svg version="1.0" xmlns="http://www.w3.org/2000/svg"
 width="512.000000pt" height="512.000000pt" viewBox="0 0 512.000000 512.000000"
 preserveAspectRatio="xMidYMid meet">
<metadata>
Created by potrace 1.14, written by Peter Selinger 2001-2017
</metadata>
<g transform="translate(0.000000,512.000000) scale(0.100000,-0.100000)"
fill="#000000" stroke="none">
<path d="M0 2560 l0 -2560 2560 0 2560 0 0 2560 0 2560 -2560 0 -2560 0 0
-2560z m4737 1619 c79 -38 114 -82 121 -149 22 -231 -230 -713 -652 -1245
-631 -797 -1419 -1528 -1881 -1746 -123 -58 -188 -73 -271 -66 -122 12 -215
75 -242 166 -17 54 -15 198 4 289 43 214 180 532 364 850 17 28 29 52 26 52
-2 0 -50 -53 -106 -117 -545 -626 -1045 -1054 -1397 -1195 -107 -42 -177 -38
-258 16 -69 45 -137 112 -162 157 -14 27 -18 53 -16 129 8 443 490 1232 1284
2099 129 141 131 146 34 71 -153 -119 -288 -192 -388 -211 -98 -18 -158 14
-207 110 -36 73 -45 120 -30 165 15 46 151 176 184 176 33 0 40 -14 21 -44
-10 -15 -12 -26 -6 -30 16 -10 104 38 429 233 164 99 334 197 378 219 76 39
81 40 138 32 106 -15 266 -113 266 -163 0 -29 -53 -120 -125 -217 -43 -58
-206 -271 -363 -474 -678 -880 -916 -1221 -1072 -1541 -93 -189 -110 -255 -66
-255 25 0 131 78 263 192 266 231 1367 1348 1891 1920 183 199 190 203 352
202 172 -1 270 -38 270 -103 0 -35 -57 -123 -147 -226 -298 -343 -602 -829
-887 -1417 -175 -361 -236 -568 -168 -568 118 0 914 766 1355 1303 248 303
538 726 654 955 38 75 48 105 51 157 4 58 2 66 -23 91 -22 22 -32 25 -63 20
-124 -21 -122 -22 -122 11 0 38 3 40 125 101 194 97 317 111 442 51z"/>
</g>
</svg>
